<svg width="124" height="144" viewBox="0 0 124 144" fill="none" xmlns="http://www.w3.org/2000/svg">
<g clip-path="url(#clip0_132_4996)">
<path d="M120.288 1.99453C119.175 1.21163 117.878 0.674934 116.5 0.426574C115.121 0.178214 113.698 0.224952 112.343 0.56312L42.2694 17.7593C39.838 18.3555 37.6926 19.6723 36.1703 21.5029C34.6481 23.3335 33.8354 25.574 33.86 27.8722V100.405C33.86 102.569 32.3272 104.437 29.9542 105.165L29.912 105.181L11.6307 110.958C4.63815 113.092 0.110027 119.02 0.110027 126.052C0.0844195 128.912 0.813098 131.736 2.23453 134.285C3.65596 136.834 5.7284 139.033 8.27683 140.697C11.5586 142.873 15.5092 144.048 19.5655 144.054C21.6876 144.05 23.795 143.733 25.8057 143.113L25.9393 143.072L33.6175 140.523C36.9481 139.508 39.8472 137.567 41.9083 134.972C43.9693 132.377 45.0889 129.258 45.11 126.052V58.012C45.11 55.6724 46.787 53.7724 49.385 53.1754L49.4589 53.1562L110.852 38.1873C111.06 38.1385 111.277 38.1335 111.486 38.1728C111.696 38.2121 111.894 38.2947 112.063 38.4142C112.233 38.5337 112.37 38.687 112.465 38.8624C112.56 39.0378 112.609 39.2306 112.61 39.4262V84.9777C112.61 87.1441 111.116 88.951 108.704 89.6892L108.616 89.7181L90.7253 95.5304C87.246 96.575 84.221 98.6032 82.0879 101.321C79.9549 104.039 78.8244 107.307 78.86 110.65C78.8286 113.519 79.5544 116.352 80.9759 118.911C82.3974 121.469 84.4729 123.678 87.0268 125.349C89.5273 126.999 92.4264 128.075 95.4789 128.486C98.5313 128.897 101.647 128.63 104.563 127.708L104.689 127.67L112.367 125.118C115.698 124.104 118.597 122.163 120.658 119.568C122.719 116.974 123.839 113.855 123.86 110.65V8.6156C123.868 7.33472 123.549 6.06977 122.929 4.92067C122.309 3.77157 121.405 2.76981 120.288 1.99453V1.99453Z" fill="#F2F2F2"/>
</g>
<defs>
<clipPath id="clip0_132_4996">
<rect width="124" height="144" fill="white"/>
</clipPath>
</defs>
</svg>
