<svg width="9" height="10" viewBox="0 0 9 10" fill="none" xmlns="http://www.w3.org/2000/svg">
<path d="M4.29244 0.829102C1.98932 0.829102 0.115528 2.77229 0.115528 5.16072C0.115528 7.54915 1.98932 9.49233 4.29244 9.49233C6.59557 9.49233 8.46936 7.54915 8.46936 5.16072C8.46936 2.77229 6.59557 0.829102 4.29244 0.829102ZM5.89895 5.49392H4.61374V6.82672C4.61374 6.91509 4.57989 6.99985 4.51964 7.06233C4.45938 7.12482 4.37766 7.15992 4.29244 7.15992C4.20723 7.15992 4.1255 7.12482 4.06525 7.06233C4.00499 6.99985 3.97114 6.91509 3.97114 6.82672V5.49392H2.68594C2.60072 5.49392 2.519 5.45881 2.45874 5.39633C2.39849 5.33384 2.36464 5.24909 2.36464 5.16072C2.36464 5.07235 2.39849 4.9876 2.45874 4.92511C2.519 4.86262 2.60072 4.82752 2.68594 4.82752H3.97114V3.49471C3.97114 3.40634 4.00499 3.32159 4.06525 3.2591C4.1255 3.19662 4.20723 3.16151 4.29244 3.16151C4.37766 3.16151 4.45938 3.19662 4.51964 3.2591C4.57989 3.32159 4.61374 3.40634 4.61374 3.49471V4.82752H5.89895C5.98416 4.82752 6.06589 4.86262 6.12614 4.92511C6.1864 4.9876 6.22025 5.07235 6.22025 5.16072C6.22025 5.24909 6.1864 5.33384 6.12614 5.39633C6.06589 5.45881 5.98416 5.49392 5.89895 5.49392Z" fill="#F2F2F2"/>
</svg>
